<svg width="20" height="15" viewBox="0 0 20 15" fill="none" xmlns="http://www.w3.org/2000/svg">
<path d="M12.3636 15C10.2318 15 8.42614 14.2734 6.94659 12.8203C5.46705 11.3672 4.72727 9.59375 4.72727 7.5C4.72727 5.42188 5.46705 3.65234 6.94659 2.19141C8.42614 0.730469 10.2318 0 12.3636 0C14.4795 0 16.2812 0.730469 17.7687 2.19141C19.2563 3.65234 20 5.42188 20 7.5C20 9.59375 19.2563 11.3672 17.7687 12.8203C16.2812 14.2734 14.4795 15 12.3636 15ZM14.5352 10.9922L15.8955 9.65625L13.3182 7.125V3.75H11.4091V7.89844L14.5352 10.9922ZM-0.0454546 4.6875V2.8125H3.77273V4.6875H-0.0454546ZM-1 8.4375V6.5625H3.77273V8.4375H-1ZM-0.0454546 12.1875V10.3125H3.77273V12.1875H-0.0454546Z" fill="#2D9CDB"/>
</svg>
