<svg width="17" height="17" viewBox="0 0 17 17" fill="none" xmlns="http://www.w3.org/2000/svg">
<path d="M0.75 8.25L2.41667 6.58333M2.41667 6.58333L8.25 0.75L14.0833 6.58333M2.41667 6.58333V14.9167C2.41667 15.1377 2.50446 15.3496 2.66074 15.5059C2.81702 15.6622 3.02899 15.75 3.25 15.75H5.75M14.0833 6.58333L15.75 8.25M14.0833 6.58333V14.9167C14.0833 15.1377 13.9955 15.3496 13.8393 15.5059C13.683 15.6622 13.471 15.75 13.25 15.75H10.75M5.75 15.75C5.97101 15.75 6.18298 15.6622 6.33926 15.5059C6.49554 15.3496 6.58333 15.1377 6.58333 14.9167V11.5833C6.58333 11.3623 6.67113 11.1504 6.82741 10.9941C6.98369 10.8378 7.19565 10.75 7.41667 10.75H9.08333C9.30435 10.75 9.51631 10.8378 9.67259 10.9941C9.82887 11.1504 9.91667 11.3623 9.91667 11.5833V14.9167C9.91667 15.1377 10.0045 15.3496 10.1607 15.5059C10.317 15.6622 10.529 15.75 10.75 15.75M5.75 15.75H10.75" stroke="#333333" stroke-width="1.5" stroke-linecap="round" stroke-linejoin="round"/>
</svg>
