<svg width="18" height="20" viewBox="0 0 18 20" fill="none" xmlns="http://www.w3.org/2000/svg">
<g clip-path="url(#clip0_95_347)">
<path d="M8.75001 0C8.05861 0 7.50001 0.558594 7.50001 1.25V1.94922C4.66798 2.39844 2.50001 4.85156 2.50001 7.8125V9.11719C2.50001 10.8906 1.89454 12.6133 0.789074 13.9961L0.207043 14.7266C-0.0195197 15.0078 -0.0624885 15.3945 0.0937615 15.7188C0.250012 16.043 0.578137 16.25 0.937512 16.25H16.5625C16.9219 16.25 17.25 16.043 17.4063 15.7188C17.5625 15.3945 17.5195 15.0078 17.293 14.7266L16.7109 14C15.6055 12.6133 15 10.8906 15 9.11719V7.8125C15 4.85156 12.832 2.39844 10 1.94922V1.25C10 0.558594 9.44142 0 8.75001 0ZM8.75001 3.75H9.06251C11.3047 3.75 13.125 5.57031 13.125 7.8125V9.11719C13.125 10.9883 13.668 12.8125 14.6758 14.375H2.82423C3.83204 12.8125 4.37501 10.9883 4.37501 9.11719V7.8125C4.37501 5.57031 6.19532 3.75 8.43751 3.75H8.75001ZM11.25 17.5H8.75001H6.25001C6.25001 18.1641 6.51173 18.8008 6.98048 19.2695C7.44923 19.7383 8.08595 20 8.75001 20C9.41407 20 10.0508 19.7383 10.5195 19.2695C10.9883 18.8008 11.25 18.1641 11.25 17.5Z" fill="#4B5563"/>
</g>
<defs>
<clipPath id="clip0_95_347">
<path d="M0 0H17.5V20H0V0Z" fill="white"/>
</clipPath>
</defs>
</svg>
