<svg width="20" height="20" viewBox="0 0 14 17" fill="none" xmlns="http://www.w3.org/2000/svg">
<path d="M9.91667 4.08333C9.91667 4.96739 9.56548 5.81523 8.94036 6.44036C8.31523 7.06548 7.46739 7.41667 6.58333 7.41667C5.69928 7.41667 4.85143 7.06548 4.22631 6.44036C3.60119 5.81523 3.25 4.96739 3.25 4.08333C3.25 3.19928 3.60119 2.35143 4.22631 1.72631C4.85143 1.10119 5.69928 0.75 6.58333 0.75C7.46739 0.75 8.31523 1.10119 8.94036 1.72631C9.56548 2.35143 9.91667 3.19928 9.91667 4.08333ZM6.58333 9.91667C5.03624 9.91667 3.55251 10.5312 2.45854 11.6252C1.36458 12.7192 0.75 14.2029 0.75 15.75H12.4167C12.4167 14.2029 11.8021 12.7192 10.7081 11.6252C9.61416 10.5312 8.13043 9.91667 6.58333 9.91667Z" stroke="#333333" stroke-width="1.5" stroke-linecap="round" stroke-linejoin="round"/>
</svg>
