<svg width="12" height="16" viewBox="0 0 12 16" fill="none" xmlns="http://www.w3.org/2000/svg">
<path d="M3 13.5H9V12H3V13.5ZM3 11H9V9.5H3V11ZM6 7.97917C6.83333 7.22917 7.54167 6.56354 8.125 5.98229C8.70833 5.40104 9 4.79167 9 4.15417C9 3.70417 8.83743 3.31597 8.51229 2.98958C8.18715 2.66319 7.79944 2.5 7.34917 2.5C7.08653 2.5 6.83326 2.55333 6.58938 2.66C6.34549 2.76681 6.14847 2.91431 5.99833 3.1025C5.84833 2.91431 5.65139 2.76681 5.4075 2.66C5.16361 2.55333 4.91056 2.5 4.64833 2.5C4.19875 2.5 3.81167 2.66236 3.48708 2.98708C3.16236 3.31181 3 3.69903 3 4.14875C3 4.7857 3.28125 5.38542 3.84375 5.94792C4.40625 6.51042 5.125 7.1875 6 7.97917ZM10.4992 16H1.49417C1.08139 16 0.729167 15.8531 0.4375 15.5594C0.145833 15.2656 0 14.9125 0 14.5V1.5C0 1.0875 0.146945 0.734376 0.440833 0.440626C0.734722 0.146876 1.08806 0 1.50083 0H10.5058C10.9186 0 11.2708 0.146876 11.5625 0.440626C11.8542 0.734376 12 1.0875 12 1.5V14.5C12 14.9125 11.8531 15.2656 11.5592 15.5594C11.2653 15.8531 10.9119 16 10.4992 16ZM1.5 14.5H10.5V1.5H1.5V14.5Z" fill="#333333"/>
</svg>
